<?xml version="1.0" standalone="no"?><!DOCTYPE svg PUBLIC "-//W3C//DTD SVG 1.1//EN" "http://www.w3.org/Graphics/SVG/1.1/DTD/svg11.dtd"><svg t="1760073609837" class="icon" viewBox="0 0 1536 1024" version="1.1" xmlns="http://www.w3.org/2000/svg" p-id="10459" xmlns:xlink="http://www.w3.org/1999/xlink" width="300" height="200"><path d="M870.4 494.933333H588.8c-59.733333 0-102.4-42.666667-102.4-102.4V102.4C486.4 42.666667 529.066667 0 588.8 0h281.6c59.733333 0 102.4 42.666667 102.4 102.4v290.133333c0 59.733333-42.666667 102.4-102.4 102.4zM588.8 85.333333c-8.533333 0-17.066667 0-17.066667 17.066667v290.133333c0 8.533333 0 17.066667 17.066667 17.066667h281.6c8.533333 0 17.066667 0 17.066667-17.066667V102.4c0-8.533333 0-17.066667-17.066667-17.066667H588.8zM1433.6 1015.466667h-281.6c-59.733333 0-102.4-42.666667-102.4-102.4V622.933333c0-59.733333 42.666667-102.4 102.4-102.4h281.6c59.733333 0 102.4 42.666667 102.4 102.4v290.133334c0 59.733333-42.666667 102.4-102.4 102.4z m-281.6-409.6c-8.533333 0-17.066667 0-17.066667 17.066666v290.133334c0 8.533333 0 17.066667 17.066667 17.066666h281.6c8.533333 0 17.066667 0 17.066667-17.066666V622.933333c0-8.533333 0-17.066667-17.066667-17.066666h-281.6zM921.6 1024H640c-59.733333 0-102.4-42.666667-102.4-102.4V631.466667c0-59.733333 42.666667-102.4 102.4-102.4h281.6c59.733333 0 102.4 42.666667 102.4 102.4v290.133333c0 59.733333-42.666667 102.4-102.4 102.4zM640 614.4c-8.533333 0-17.066667 0-17.066667 17.066667v290.133333c0 8.533333 0 17.066667 17.066667 17.066667h281.6c8.533333 0 17.066667 0 17.066667-17.066667V631.466667c0-8.533333 0-17.066667-17.066667-17.066667H640zM384 1024H102.4C42.666667 1024 0 981.333333 0 921.6V631.466667c0-59.733333 42.666667-102.4 102.4-102.4h281.6c59.733333 0 102.4 42.666667 102.4 102.4v290.133333c0 59.733333-42.666667 102.4-102.4 102.4zM102.4 614.4c-8.533333 0-17.066667 0-17.066667 17.066667v290.133333c0 8.533333 0 17.066667 17.066667 17.066667h281.6c8.533333 0 17.066667 0 17.066667-17.066667V631.466667c0-8.533333 0-17.066667-17.066667-17.066667H102.4z" fill="#707070" p-id="10460"></path><path d="M588.8 290.133333m8.533333 0l256 0q8.533333 0 8.533334 8.533334l0 17.066666q0 8.533333-8.533334 8.533334l-256 0q-8.533333 0-8.533333-8.533334l0-17.066666q0-8.533333 8.533333-8.533334Z" fill="#707070" p-id="10461"></path><path d="M640 836.266667m0 0l273.066667 0q0 0 0 0l0 34.133333q0 0 0 0l-273.066667 0q0 0 0 0l0-34.133333q0 0 0 0Z" fill="#707070" p-id="10462"></path><path d="M110.933333 836.266667m0 0l273.066667 0q0 0 0 0l0 34.133333q0 0 0 0l-273.066667 0q0 0 0 0l0-34.133333q0 0 0 0Z" fill="#707070" p-id="10463"></path><path d="M1152 836.266667m0 0l273.066667 0q0 0 0 0l0 34.133333q0 0 0 0l-273.066667 0q0 0 0 0l0-34.133333q0 0 0 0Z" fill="#707070" p-id="10464"></path></svg>